<svg width="96" height="96" viewBox="0 0 96 96" fill="none" xmlns="http://www.w3.org/2000/svg">
  <defs>
    <linearGradient id="bg" x1="12" y1="10" x2="84" y2="86" gradientUnits="userSpaceOnUse">
      <stop stop-color="#FFE4E6" />
      <stop offset="1" stop-color="#F9A8D4" />
    </linearGradient>
  </defs>
  <rect width="96" height="96" rx="28" fill="url(#bg)" />
  <circle cx="48" cy="48" r="34" fill="rgba(255,255,255,0.18)" />
  
    
      <ellipse cx="28" cy="25" rx="8" ry="16" fill="#F8B4C8" transform="rotate(-18 28 25)"/>
      <ellipse cx="68" cy="25" rx="8" ry="16" fill="#F8B4C8" transform="rotate(18 68 25)"/>
      <ellipse cx="29" cy="26" rx="3.8" ry="9.5" fill="#F472B6" transform="rotate(-18 29 26)"/>
      <ellipse cx="67" cy="26" rx="3.8" ry="9.5" fill="#F472B6" transform="rotate(18 67 26)"/>
    
    <circle cx="48" cy="50" r="24" fill="#FDE7EF" />
    
    <circle cx="39" cy="48" r="3.3" fill="#1F2937" />
    <circle cx="57" cy="48" r="3.3" fill="#1F2937" />
    <ellipse cx="48" cy="58" rx="10" ry="8" fill="#FFF1F2" />
    <circle cx="48" cy="56" r="3" fill="#FB7185" />
    <path d="M48 58V61" stroke="#7C2D12" stroke-width="2" stroke-linecap="round" />
    <path d="M42 60C44 63 52 63 54 60" stroke="#7C2D12" stroke-width="2.5" stroke-linecap="round" />
    
  
</svg>
