<svg width="96" height="96" viewBox="0 0 96 96" fill="none" xmlns="http://www.w3.org/2000/svg">
  <defs>
    <linearGradient id="bg" x1="12" y1="10" x2="84" y2="86" gradientUnits="userSpaceOnUse">
      <stop stop-color="#FFF7ED" />
      <stop offset="1" stop-color="#D6A46B" />
    </linearGradient>
  </defs>
  <rect width="96" height="96" rx="28" fill="url(#bg)" />
  <circle cx="48" cy="48" r="34" fill="rgba(255,255,255,0.18)" />
  
    
        <circle cx="28" cy="25" r="10" fill="#8B5E3C" />
        <circle cx="68" cy="25" r="10" fill="#8B5E3C" />
        <circle cx="28" cy="25" r="5" fill="#FDE7D3" />
        <circle cx="68" cy="25" r="5" fill="#FDE7D3" />
      
    <circle cx="48" cy="50" r="24" fill="#D6A46B" />
    <ellipse cx="25" cy="36" rx="8" ry="12" fill="#8B5E3C" transform="rotate(-20 25 36)" /><ellipse cx="71" cy="36" rx="8" ry="12" fill="#8B5E3C" transform="rotate(20 71 36)" />
    <circle cx="39" cy="48" r="3.3" fill="#1F2937" />
    <circle cx="57" cy="48" r="3.3" fill="#1F2937" />
    <ellipse cx="48" cy="58" rx="10" ry="8" fill="#FFF7ED" />
    <circle cx="48" cy="56" r="3" fill="#1F2937" />
    <path d="M48 58V61" stroke="#7C2D12" stroke-width="2" stroke-linecap="round" />
    <path d="M42 60C44 63 52 63 54 60" stroke="#7C2D12" stroke-width="2.5" stroke-linecap="round" />
    
  
</svg>
