<svg width="96" height="96" viewBox="0 0 96 96" fill="none" xmlns="http://www.w3.org/2000/svg">
  <defs>
    <linearGradient id="bg" x1="12" y1="10" x2="84" y2="86" gradientUnits="userSpaceOnUse">
      <stop stop-color="#FFEDD5" />
      <stop offset="1" stop-color="#FB7185" />
    </linearGradient>
  </defs>
  <rect width="96" height="96" rx="28" fill="url(#bg)" />
  <circle cx="48" cy="48" r="34" fill="rgba(255,255,255,0.18)" />
  
    
        <path d="M20 33L31 14L40 35Z" fill="#EA580C"/>
        <path d="M56 35L65 14L76 33Z" fill="#EA580C"/>
        <path d="M28 31L31 23L35 31Z" fill="#FED7AA"/>
        <path d="M61 31L65 23L68 31Z" fill="#FED7AA"/>
      
    <circle cx="48" cy="50" r="24" fill="#F97316" />
    <path d="M32 40C38 34 58 34 64 40" stroke="#FFF7ED" stroke-width="5" stroke-linecap="round" />
    <circle cx="39" cy="48" r="3.3" fill="#1F2937" />
    <circle cx="57" cy="48" r="3.3" fill="#1F2937" />
    <ellipse cx="48" cy="58" rx="10" ry="8" fill="#FFF7ED" />
    <circle cx="48" cy="56" r="3" fill="#1F2937" />
    <path d="M48 58V61" stroke="#7C2D12" stroke-width="2" stroke-linecap="round" />
    <path d="M42 60C44 63 52 63 54 60" stroke="#7C2D12" stroke-width="2.5" stroke-linecap="round" />
    
      <path d="M28 55H18" stroke="#7C2D12" stroke-width="2" stroke-linecap="round" />
      <path d="M68 55H78" stroke="#7C2D12" stroke-width="2" stroke-linecap="round" />
      <path d="M30 60H20" stroke="#7C2D12" stroke-width="2" stroke-linecap="round" />
      <path d="M66 60H76" stroke="#7C2D12" stroke-width="2" stroke-linecap="round" />
    
  
</svg>
