<svg width="96" height="96" viewBox="0 0 96 96" fill="none" xmlns="http://www.w3.org/2000/svg">
  <defs>
    <linearGradient id="bg" x1="12" y1="10" x2="84" y2="86" gradientUnits="userSpaceOnUse">
      <stop stop-color="#FEF3C7" />
      <stop offset="1" stop-color="#D97706" />
    </linearGradient>
  </defs>
  <rect width="96" height="96" rx="28" fill="url(#bg)" />
  <circle cx="48" cy="48" r="34" fill="rgba(255,255,255,0.18)" />
  
    
        <path d="M20 33L31 14L40 35Z" fill="#713F12"/>
        <path d="M56 35L65 14L76 33Z" fill="#713F12"/>
        <path d="M28 31L31 23L35 31Z" fill="#FDE68A"/>
        <path d="M61 31L65 23L68 31Z" fill="#FDE68A"/>
      
    <circle cx="48" cy="50" r="24" fill="#A16207" />
    <circle cx="39" cy="48" r="9" fill="#FEF3C7" opacity="0.8" /><circle cx="57" cy="48" r="9" fill="#FEF3C7" opacity="0.8" />
    <circle cx="39" cy="48" r="3.3" fill="#1F2937" />
    <circle cx="57" cy="48" r="3.3" fill="#1F2937" />
    <ellipse cx="48" cy="58" rx="10" ry="8" fill="#FDE68A" />
    <circle cx="48" cy="56" r="3" fill="#B45309" />
    <path d="M48 58V61" stroke="#7C2D12" stroke-width="2" stroke-linecap="round" />
    <path d="M42 59H54L48 65Z" fill="#B45309" />
    
  
</svg>
