<svg width="96" height="96" viewBox="0 0 96 96" fill="none" xmlns="http://www.w3.org/2000/svg">
  <defs>
    <linearGradient id="bg" x1="12" y1="10" x2="84" y2="86" gradientUnits="userSpaceOnUse">
      <stop stop-color="#EEF2FF" />
      <stop offset="1" stop-color="#C4B5FD" />
    </linearGradient>
  </defs>
  <rect width="96" height="96" rx="28" fill="url(#bg)" />
  <circle cx="48" cy="48" r="34" fill="rgba(255,255,255,0.18)" />
  
    <path d="M28 38L34 24L40 40Z" fill="#C4B5FD" /><path d="M68 38L62 24L56 40Z" fill="#C4B5FD" />
    <path d="M48 12L54 30H42L48 12Z" fill="#FDE68A" />
    <circle cx="48" cy="50" r="23" fill="#F8FAFC" />
    <path d="M48 28L54 34L48 40L42 34Z" fill="#FDE68A" />
    <circle cx="39" cy="48" r="3.3" fill="#4338CA" />
    <circle cx="57" cy="48" r="3.3" fill="#4338CA" />
    <ellipse cx="48" cy="57" rx="9" ry="7" fill="#EDE9FE" />
    <circle cx="48" cy="55" r="2.8" fill="#7C2D12" />
    <path d="M42 59C44 62 52 62 54 59" stroke="#7C2D12" stroke-width="2.5" stroke-linecap="round" />
  
</svg>
