<svg width="1025" height="1024" viewBox="0 0 1025 1024" fill="none" xmlns="http://www.w3.org/2000/svg">
<rect x="0.343994" width="1024" height="1024" rx="256" fill="#2F6BFF"/>
<path d="M180.789 266C170.489 266 162.875 266.447 157.949 267.342C152.574 267.79 146.752 269.804 140.482 273.383C133.764 276.963 129.062 283.004 126.375 291.506C123.688 300.008 122.344 311.419 122.344 325.738C122.344 340.057 123.688 351.468 126.375 359.97C129.062 368.472 133.764 374.513 140.482 378.093C147.2 381.225 153.246 383.239 158.62 384.134C163.547 384.581 171.384 384.805 182.133 384.805H387.699V452.598H255.357C244.609 452.598 236.771 453.045 231.845 453.94C226.471 454.387 220.425 456.401 213.707 459.981C202.062 466.693 196.24 484.368 196.24 513.007C196.24 544.33 204.75 562.9 221.768 568.718C228.934 570.955 240.354 572.074 256.029 572.074H387.699V698.933C387.699 709.673 388.147 717.503 389.043 722.426C389.491 727.348 391.506 733.165 395.089 739.877C401.359 751.959 418.825 758 447.488 758C478.838 758 497.2 749.498 502.574 732.494C505.261 725.334 506.605 713.924 506.605 698.262V325.067C506.605 302.246 502.35 286.808 493.841 278.753C485.332 270.251 469.209 266 445.473 266H180.789Z" fill="white"/>
<path d="M710.156 286.808C714.634 278.753 721.128 273.383 729.638 270.699C738.147 268.014 748.672 266.671 761.212 266.671C774.199 266.671 784.5 267.79 792.114 270.027C800.175 272.265 805.997 274.95 809.58 278.082C813.611 281.214 816.522 285.913 818.313 292.177C821 299.337 822.344 310.748 822.344 326.409V698.933C822.344 709.673 821.896 717.503 821 722.426C820.553 727.348 818.537 733.165 814.954 739.877C808.684 751.959 791.218 758 762.555 758C745.089 758 732.997 756.658 726.279 753.973C719.561 751.288 713.963 747.037 709.484 741.22C608.716 606.977 542.434 519.271 510.636 478.104V698.933C510.636 709.673 510.188 717.503 509.292 722.426C508.844 727.348 506.829 733.165 503.246 739.877C496.976 751.959 479.51 758 450.847 758C423.08 758 406.061 751.959 399.791 739.877C396.208 733.165 393.969 727.124 393.073 721.754C392.626 716.385 392.402 708.554 392.402 698.262V323.724C392.402 306.72 394.417 294.415 398.448 286.808C402.926 278.753 409.42 273.383 417.929 270.699C426.439 268.014 437.411 266.671 450.847 266.671C464.283 266.671 474.807 268.014 482.421 270.699C490.482 272.936 496.08 275.621 499.215 278.753C501.007 280.096 506.157 285.913 514.666 296.205C609.164 424.63 672.312 509.427 704.11 550.595V323.724C704.11 306.72 706.125 294.415 710.156 286.808Z" fill="white"/>
</svg>
