<svg width="96" height="96" viewBox="0 0 96 96" fill="none" xmlns="http://www.w3.org/2000/svg">
  <defs>
    <linearGradient id="bg" x1="12" y1="10" x2="84" y2="86" gradientUnits="userSpaceOnUse">
      <stop stop-color="#FEF3C7" />
      <stop offset="1" stop-color="#FB923C" />
    </linearGradient>
  </defs>
  <rect width="96" height="96" rx="28" fill="url(#bg)" />
  <circle cx="48" cy="48" r="34" fill="rgba(255,255,255,0.18)" />
  
    <rect x="44" y="12" width="8" height="12" rx="4" fill="#F97316" />
    <circle cx="48" cy="11" r="5" fill="#FB7185" />
    
      <path d="M19 42H28V50H19L15 46Z" fill="#F97316" />
      <path d="M77 42H68V50H77L81 46Z" fill="#F97316" />
    
    <rect x="22" y="24" width="52" height="42" rx="15" fill="#FDE68A" />
    <rect x="28" y="31" width="40" height="24" rx="10" fill="#1F2937" />
    
      <path d="M31 39H42" stroke="#0F172A" stroke-width="3" stroke-linecap="round" />
      <path d="M54 39H65" stroke="#0F172A" stroke-width="3" stroke-linecap="round" />
    
    <rect x="34" y="40" width="8" height="8" rx="3" fill="#FACC15" />
    <rect x="54" y="40" width="8" height="8" rx="3" fill="#FACC15" />
    <rect x="34" y="57" width="28" height="5" rx="2.5" fill="#F8FAFC" />
    <rect x="35" y="58" width="4" height="9" rx="2" fill="#F97316" />
    <rect x="45" y="58" width="4" height="9" rx="2" fill="#F97316" />
    <rect x="55" y="58" width="4" height="9" rx="2" fill="#F97316" />
    
  
</svg>
