<svg width="96" height="96" viewBox="0 0 96 96" fill="none" xmlns="http://www.w3.org/2000/svg">
  <defs>
    <linearGradient id="bg" x1="12" y1="10" x2="84" y2="86" gradientUnits="userSpaceOnUse">
      <stop stop-color="#E2E8F0" />
      <stop offset="1" stop-color="#94A3B8" />
    </linearGradient>
  </defs>
  <rect width="96" height="96" rx="28" fill="url(#bg)" />
  <circle cx="48" cy="48" r="34" fill="rgba(255,255,255,0.18)" />
  
    <rect x="24" y="34" width="10" height="18" rx="5" fill="#64748B" /><rect x="62" y="34" width="10" height="18" rx="5" fill="#64748B" />
    <path d="M48 18L54 28H42L48 18Z" fill="#38BDF8" />
    <circle cx="48" cy="50" r="23" fill="#94A3B8" />
    
    <circle cx="39" cy="48" r="3.3" fill="#0F172A" />
    <circle cx="57" cy="48" r="3.3" fill="#0F172A" />
    <ellipse cx="48" cy="57" rx="9" ry="7" fill="#E2E8F0" />
    <circle cx="48" cy="55" r="2.8" fill="#7C2D12" />
    <path d="M41 58C44 62 52 62 55 58" stroke="#7C2D12" stroke-width="2.5" stroke-linecap="round" /><path d="M44 61L46 66" stroke="#FFFFFF" stroke-width="2" stroke-linecap="round" /><path d="M52 61L50 66" stroke="#FFFFFF" stroke-width="2" stroke-linecap="round" />
  
</svg>
