<svg width="96" height="96" viewBox="0 0 96 96" fill="none" xmlns="http://www.w3.org/2000/svg">
  <defs>
    <linearGradient id="bg" x1="12" y1="10" x2="84" y2="86" gradientUnits="userSpaceOnUse">
      <stop stop-color="#FDF2F8" />
      <stop offset="1" stop-color="#F9A8D4" />
    </linearGradient>
  </defs>
  <rect width="96" height="96" rx="28" fill="url(#bg)" />
  <circle cx="48" cy="48" r="34" fill="rgba(255,255,255,0.18)" />
  
    <path d="M16 42C22 28 32 24 40 34C34 36 29 42 28 50Z" fill="#F9A8D4" /><path d="M80 42C74 28 64 24 56 34C62 36 67 42 68 50Z" fill="#F9A8D4" />
    <circle cx="48" cy="22" r="5" fill="#FDE68A" />
    <circle cx="48" cy="50" r="23" fill="#FBCFE8" />
    
    <circle cx="39" cy="48" r="3.3" fill="#831843" />
    <circle cx="57" cy="48" r="3.3" fill="#831843" />
    <ellipse cx="48" cy="57" rx="9" ry="7" fill="#FCE7F3" />
    <circle cx="48" cy="55" r="2.8" fill="#7C2D12" />
    <path d="M42 59C44 62 52 62 54 59" stroke="#7C2D12" stroke-width="2.5" stroke-linecap="round" />
  
</svg>
