<svg width="96" height="96" viewBox="0 0 96 96" fill="none" xmlns="http://www.w3.org/2000/svg">
  <defs>
    <linearGradient id="bg" x1="12" y1="10" x2="84" y2="86" gradientUnits="userSpaceOnUse">
      <stop stop-color="#F5F3FF" />
      <stop offset="1" stop-color="#A78BFA" />
    </linearGradient>
  </defs>
  <rect width="96" height="96" rx="28" fill="url(#bg)" />
  <circle cx="48" cy="48" r="34" fill="rgba(255,255,255,0.18)" />
  
    <ellipse cx="24" cy="44" rx="10" ry="6" fill="#DDD6FE" transform="rotate(-24 24 44)" /><ellipse cx="72" cy="44" rx="10" ry="6" fill="#DDD6FE" transform="rotate(24 72 44)" />
    <circle cx="35" cy="24" r="4" fill="#FDE68A" /><circle cx="61" cy="24" r="4" fill="#FDE68A" />
    <circle cx="48" cy="50" r="23" fill="#C4B5FD" />
    <path d="M48 28L54 34L48 40L42 34Z" fill="#FDE68A" />
    <circle cx="39" cy="48" r="3.3" fill="#4C1D95" />
    <circle cx="57" cy="48" r="3.3" fill="#4C1D95" />
    <ellipse cx="48" cy="57" rx="9" ry="7" fill="#EDE9FE" />
    <circle cx="48" cy="55" r="2.8" fill="#7C2D12" />
    <path d="M42 59C44 62 52 62 54 59" stroke="#7C2D12" stroke-width="2.5" stroke-linecap="round" />
  
</svg>
