<svg width="96" height="96" viewBox="0 0 96 96" fill="none" xmlns="http://www.w3.org/2000/svg">
  <defs>
    <linearGradient id="bg" x1="12" y1="10" x2="84" y2="86" gradientUnits="userSpaceOnUse">
      <stop stop-color="#FAE8FF" />
      <stop offset="1" stop-color="#E879F9" />
    </linearGradient>
  </defs>
  <rect width="96" height="96" rx="28" fill="url(#bg)" />
  <circle cx="48" cy="48" r="34" fill="rgba(255,255,255,0.18)" />
  
    <rect x="44" y="12" width="8" height="12" rx="4" fill="#D946EF" />
    <circle cx="48" cy="11" r="5" fill="#C084FC" />
    
      <path d="M19 42H28V50H19L15 46Z" fill="#D946EF" />
      <path d="M77 42H68V50H77L81 46Z" fill="#D946EF" />
    
    <rect x="22" y="24" width="52" height="42" rx="15" fill="#F5D0FE" />
    <rect x="28" y="31" width="40" height="24" rx="10" fill="#701A75" />
    
    <rect x="34" y="40" width="8" height="8" rx="3" fill="#F0ABFC" />
    <rect x="54" y="40" width="8" height="8" rx="3" fill="#F0ABFC" />
    <rect x="34" y="57" width="28" height="5" rx="2.5" fill="#FAE8FF" />
    <rect x="35" y="58" width="4" height="9" rx="2" fill="#D946EF" />
    <rect x="45" y="58" width="4" height="9" rx="2" fill="#D946EF" />
    <rect x="55" y="58" width="4" height="9" rx="2" fill="#D946EF" />
    
      <circle cx="31" cy="56" r="2.3" fill="#D946EF" opacity="0.75" />
      <circle cx="65" cy="56" r="2.3" fill="#D946EF" opacity="0.75" />
    
  
</svg>
